<mxfile host="app.diagrams.net" modified="2024-10-17T21:21:40.880Z" agent="Mozilla/5.0 (Macintosh; Intel Mac OS X 10.15; rv:131.0) Gecko/20100101 Firefox/131.0" etag="oIdOuopHInQJWiP_4Gb9" version="22.1.18" type="onedrive">
  <diagram name="Page-1" id="ruzMKOM_EdjgP6K-rN_b">
    <mxGraphModel grid="1" page="1" gridSize="10" guides="1" tooltips="1" connect="1" arrows="1" fold="1" pageScale="1" pageWidth="827" pageHeight="1169" math="0" shadow="0">
      <root>
        <mxCell id="0" />
        <mxCell id="1" parent="0" />
        <mxCell id="2" value="Instructor" style="shape=umlLifeline;perimeter=lifelinePerimeter;whiteSpace=wrap;container=1;dropTarget=0;collapsible=0;recursiveResize=0;outlineConnect=0;portConstraint=eastwest;newEdgeStyle={&quot;edgeStyle&quot;:&quot;elbowEdgeStyle&quot;,&quot;elbow&quot;:&quot;vertical&quot;,&quot;curved&quot;:0,&quot;rounded&quot;:0};size=65;" vertex="1" parent="1">
          <mxGeometry width="150" height="640" as="geometry" />
        </mxCell>
        <mxCell id="CG7GoMLp-UmG0zNydzu2-21" value="" style="shape=waypoint;sketch=0;size=6;pointerEvents=1;points=[];fillColor=default;resizable=0;rotatable=0;perimeter=centerPerimeter;snapToPoint=1;" vertex="1" parent="2">
          <mxGeometry x="60" y="290" width="20" height="20" as="geometry" />
        </mxCell>
        <mxCell id="CG7GoMLp-UmG0zNydzu2-22" value="" style="edgeStyle=elbowEdgeStyle;rounded=0;orthogonalLoop=1;jettySize=auto;html=1;elbow=vertical;curved=0;" edge="1" parent="1" source="3" target="CG7GoMLp-UmG0zNydzu2-21">
          <mxGeometry relative="1" as="geometry">
            <Array as="points">
              <mxPoint x="160" y="300" />
            </Array>
          </mxGeometry>
        </mxCell>
        <mxCell id="3" value="Student" style="shape=umlLifeline;perimeter=lifelinePerimeter;whiteSpace=wrap;container=1;dropTarget=0;collapsible=0;recursiveResize=0;outlineConnect=0;portConstraint=eastwest;newEdgeStyle={&quot;edgeStyle&quot;:&quot;elbowEdgeStyle&quot;,&quot;elbow&quot;:&quot;vertical&quot;,&quot;curved&quot;:0,&quot;rounded&quot;:0};size=65;" vertex="1" parent="1">
          <mxGeometry x="200" width="150" height="640" as="geometry" />
        </mxCell>
        <mxCell id="4" value="Administrator" style="shape=umlLifeline;perimeter=lifelinePerimeter;whiteSpace=wrap;container=1;dropTarget=0;collapsible=0;recursiveResize=0;outlineConnect=0;portConstraint=eastwest;newEdgeStyle={&quot;edgeStyle&quot;:&quot;elbowEdgeStyle&quot;,&quot;elbow&quot;:&quot;vertical&quot;,&quot;curved&quot;:0,&quot;rounded&quot;:0};size=65;" vertex="1" parent="1">
          <mxGeometry x="400" width="150" height="640" as="geometry" />
        </mxCell>
        <mxCell id="5" value="BlackboardSystem" style="shape=umlLifeline;perimeter=lifelinePerimeter;whiteSpace=wrap;container=1;dropTarget=0;collapsible=0;recursiveResize=0;outlineConnect=0;portConstraint=eastwest;newEdgeStyle={&quot;edgeStyle&quot;:&quot;elbowEdgeStyle&quot;,&quot;elbow&quot;:&quot;vertical&quot;,&quot;curved&quot;:0,&quot;rounded&quot;:0};size=65;" vertex="1" parent="1">
          <mxGeometry x="600" width="157" height="640" as="geometry" />
        </mxCell>
        <mxCell id="6" value="Create Course" style="verticalAlign=bottom;endArrow=block;edgeStyle=elbowEdgeStyle;elbow=vertical;curved=0;rounded=0;" edge="1" parent="1" source="2" target="5">
          <mxGeometry relative="1" as="geometry">
            <Array as="points">
              <mxPoint x="387" y="103" />
            </Array>
          </mxGeometry>
        </mxCell>
        <mxCell id="7" value="Course Created" style="verticalAlign=bottom;endArrow=block;edgeStyle=elbowEdgeStyle;elbow=vertical;curved=0;rounded=0;dashed=1;dashPattern=2 3;" edge="1" parent="1" source="5" target="2">
          <mxGeometry relative="1" as="geometry">
            <Array as="points">
              <mxPoint x="387" y="151" />
            </Array>
          </mxGeometry>
        </mxCell>
        <mxCell id="8" value="Add Content" style="verticalAlign=bottom;endArrow=block;edgeStyle=elbowEdgeStyle;elbow=vertical;curved=0;rounded=0;" edge="1" parent="1" source="2" target="5">
          <mxGeometry relative="1" as="geometry">
            <Array as="points">
              <mxPoint x="387" y="199" />
            </Array>
          </mxGeometry>
        </mxCell>
        <mxCell id="9" value="Content Added" style="verticalAlign=bottom;endArrow=block;edgeStyle=elbowEdgeStyle;elbow=vertical;curved=0;rounded=0;dashed=1;dashPattern=2 3;" edge="1" parent="1" source="5" target="2">
          <mxGeometry relative="1" as="geometry">
            <Array as="points">
              <mxPoint x="387" y="247" />
            </Array>
          </mxGeometry>
        </mxCell>
        <mxCell id="10" value="Enroll in Course" style="verticalAlign=bottom;endArrow=block;edgeStyle=elbowEdgeStyle;elbow=vertical;curved=0;rounded=0;" edge="1" parent="1" source="3" target="5">
          <mxGeometry relative="1" as="geometry">
            <Array as="points">
              <mxPoint x="487" y="295" />
            </Array>
          </mxGeometry>
        </mxCell>
        <mxCell id="11" value="Enrolled Successfully" style="verticalAlign=bottom;endArrow=block;edgeStyle=elbowEdgeStyle;elbow=vertical;curved=0;rounded=0;dashed=1;dashPattern=2 3;" edge="1" parent="1" source="5" target="3">
          <mxGeometry relative="1" as="geometry">
            <Array as="points">
              <mxPoint x="487" y="343" />
            </Array>
          </mxGeometry>
        </mxCell>
        <mxCell id="12" value="Access Course Material" style="verticalAlign=bottom;endArrow=block;edgeStyle=elbowEdgeStyle;elbow=vertical;curved=0;rounded=0;" edge="1" parent="1" source="3" target="5">
          <mxGeometry relative="1" as="geometry">
            <Array as="points">
              <mxPoint x="487" y="391" />
            </Array>
          </mxGeometry>
        </mxCell>
        <mxCell id="13" value="Materials Accessed" style="verticalAlign=bottom;endArrow=block;edgeStyle=elbowEdgeStyle;elbow=vertical;curved=0;rounded=0;dashed=1;dashPattern=2 3;" edge="1" parent="1" source="5" target="3">
          <mxGeometry relative="1" as="geometry">
            <Array as="points">
              <mxPoint x="487" y="439" />
            </Array>
          </mxGeometry>
        </mxCell>
        <mxCell id="14" value="Manage Users" style="verticalAlign=bottom;endArrow=block;edgeStyle=elbowEdgeStyle;elbow=vertical;curved=0;rounded=0;" edge="1" parent="1" source="4" target="5">
          <mxGeometry relative="1" as="geometry">
            <Array as="points">
              <mxPoint x="587" y="487" />
            </Array>
          </mxGeometry>
        </mxCell>
        <mxCell id="15" value="Users Managed" style="verticalAlign=bottom;endArrow=block;edgeStyle=elbowEdgeStyle;elbow=vertical;curved=0;rounded=0;dashed=1;dashPattern=2 3;" edge="1" parent="1" source="5" target="4">
          <mxGeometry relative="1" as="geometry">
            <Array as="points">
              <mxPoint x="587" y="535" />
            </Array>
          </mxGeometry>
        </mxCell>
        <mxCell id="CG7GoMLp-UmG0zNydzu2-20" value="Students Enolled" style="text;html=1;align=center;verticalAlign=middle;resizable=0;points=[];autosize=1;strokeColor=none;fillColor=none;" vertex="1" parent="1">
          <mxGeometry x="110" y="128" width="110" height="30" as="geometry" />
        </mxCell>
        <mxCell id="CG7GoMLp-UmG0zNydzu2-23" value="Send/Receive_Messages" style="text;html=1;align=center;verticalAlign=middle;resizable=0;points=[];autosize=1;strokeColor=none;fillColor=none;" vertex="1" parent="1">
          <mxGeometry x="170" y="270" width="160" height="30" as="geometry" />
        </mxCell>
      </root>
    </mxGraphModel>
  </diagram>
</mxfile>
